<?xml version="1.0" encoding="UTF-8" standalone="no"?>
<svg width="155px" height="32px" viewBox="0 0 155 32" version="1.1" xmlns="http://www.w3.org/2000/svg" xmlns:xlink="http://www.w3.org/1999/xlink">
    <!-- Generator: Sketch 50.2 (55047) - http://www.bohemiancoding.com/sketch -->
    <title>Group</title>
    <desc>Created with Sketch.</desc>
    <defs></defs>
    <g id="Page-1" stroke="none" stroke-width="1" fill="none" fill-rule="evenodd">
        <g id="Desktop-HD" transform="translate(-120.000000, -32.000000)">
            <g id="Group" transform="translate(120.000000, 32.000000)">
                <path d="M63,15 L63,11 L65,11 L65,15 L69,15 L69,17 L65,17 L65,21 L63,21 L63,17 L59,17 L59,15 L63,15 Z" id="Combined-Shape" fill="#FFFFFF"></path>
                <rect id="Rectangle-Copy-3" fill="#FFFFFF" x="0" y="0" width="54" height="32" rx="4"></rect>
                <rect id="Rectangle-Copy-4" fill="#FFFFFF" opacity="0.200000003" x="75" y="0" width="80" height="32" rx="4"></rect>
                <path d="M26.03,22 L25.05,19.44 L18.73,19.44 L17.75,22 L15.19,22 L20.43,8.66 L23.35,8.66 L28.59,22 L26.03,22 Z M21.89,10.64 L19.39,17.38 L24.39,17.38 L21.89,10.64 Z M29.99,22 L29.99,8.66 L32.09,8.66 L32.09,22 L29.99,22 Z M37.71,22.24 C36.09,22.24 35.23,21.36 35.23,19.76 L35.23,14.18 L33.63,14.18 L33.63,12.34 L35.23,12.34 L35.23,9.7 L37.33,9.7 L37.33,12.34 L39.29,12.34 L39.29,14.18 L37.33,14.18 L37.33,19.24 C37.33,19.9 37.65,20.38 38.25,20.38 C38.65,20.38 39.03,20.22 39.19,20.04 L39.69,21.62 C39.31,21.98 38.69,22.24 37.71,22.24 Z" id="Alt" fill="#3F2AB2"></path>
                <path d="M98.79,22.24 C94.95,22.24 91.89,19.44 91.89,15.34 C91.89,11.24 94.95,8.44 98.79,8.44 C101.59,8.44 103.25,9.84 104.25,11.44 L102.25,12.46 C101.61,11.36 100.33,10.52 98.79,10.52 C96.25,10.52 94.29,12.54 94.29,15.34 C94.29,18.14 96.25,20.16 98.79,20.16 C100.33,20.16 101.61,19.34 102.25,18.22 L104.25,19.24 C103.23,20.84 101.59,22.24 98.79,22.24 Z M110.43,22.24 C107.37,22.24 105.47,19.94 105.47,17.16 C105.47,14.4 107.37,12.1 110.43,12.1 C113.53,12.1 115.41,14.4 115.41,17.16 C115.41,19.94 113.53,22.24 110.43,22.24 Z M110.43,20.38 C112.23,20.38 113.23,18.88 113.23,17.16 C113.23,15.46 112.23,13.96 110.43,13.96 C108.65,13.96 107.65,15.46 107.65,17.16 C107.65,18.88 108.65,20.38 110.43,20.38 Z M124.33,22 L124.33,20.68 C123.59,21.64 122.47,22.24 121.23,22.24 C118.75,22.24 116.93,20.36 116.93,17.18 C116.93,14.06 118.73,12.1 121.23,12.1 C122.43,12.1 123.55,12.66 124.33,13.68 L124.33,8.66 L126.43,8.66 L126.43,22 L124.33,22 Z M124.33,19.1 L124.33,15.26 C123.85,14.54 122.83,13.96 121.83,13.96 C120.17,13.96 119.11,15.3 119.11,17.18 C119.11,19.04 120.17,20.38 121.83,20.38 C122.83,20.38 123.85,19.82 124.33,19.1 Z M128.55,17.16 C128.55,14.36 130.59,12.1 133.45,12.1 C136.35,12.1 138.21,14.32 138.21,17.36 L138.21,17.86 L130.75,17.86 C130.91,19.32 132.01,20.52 133.83,20.52 C134.77,20.52 135.89,20.14 136.57,19.46 L137.53,20.84 C136.57,21.76 135.15,22.24 133.61,22.24 C130.71,22.24 128.55,20.22 128.55,17.16 Z M133.45,13.82 C131.65,13.82 130.83,15.2 130.73,16.38 L136.17,16.38 C136.13,15.24 135.35,13.82 133.45,13.82 Z" id="Code" fill="#FFFFFF"></path>
            </g>
        </g>
    </g>
</svg>